<svg xmlns="http://www.w3.org/2000/svg" viewBox="0 0 376.618 81.1"><defs><style>.a{fill:#004d8a;}.b{fill:#008bc3;}</style></defs><g transform="translate(-844 -450)"><g transform="translate(940.813 474.024)"><g transform="translate(213.629 0.883)"><path class="a" d="M475.686,25.8h-11.06a1.738,1.738,0,0,1-1.162-.465A1.541,1.541,0,0,1,463,24.17V2.7l-3.3,2.231V24.123a4.928,4.928,0,0,0,4.926,4.926h11.06Z" transform="translate(-459.7 -2.328)"/><g transform="translate(40.523)"><path class="a" d="M550.2,3.805V14.958h10.317a4.928,4.928,0,0,1,4.926,4.926h0v3.857a4.928,4.928,0,0,1-4.926,4.926h-8.69a4.928,4.928,0,0,1-4.926-4.926V1.9Zm11.525,21.1a1.541,1.541,0,0,0,.465-1.162h0V19.884a1.738,1.738,0,0,0-.465-1.162h0a1.541,1.541,0,0,0-1.162-.465H550.2v5.484a1.738,1.738,0,0,0,.465,1.162h0a1.541,1.541,0,0,0,1.162.465h8.69a1.576,1.576,0,0,0,1.208-.465Z" transform="translate(-546.9 -1.9)"/></g><g transform="translate(18.496 5.112)"><path class="a" d="M501.638,12.9Zm0,0h11.478c2.742,0,4.926,2.231,4.926,4.275V29.583a4.928,4.928,0,0,1-4.926,4.926h-8.69a4.928,4.928,0,0,1-4.926-4.926V25.726h0a4.928,4.928,0,0,1,4.926-4.926h10.317V17.826h0a1.738,1.738,0,0,0-.465-1.162h0a1.541,1.541,0,0,0-1.162-.465h-13.43l1.952-3.3Zm1.626,17.891a1.541,1.541,0,0,0,1.162.465h8.69a1.738,1.738,0,0,0,1.162-.465h0a1.541,1.541,0,0,0,.465-1.162V24.146H504.426a1.738,1.738,0,0,0-1.162.465h0a1.541,1.541,0,0,0-.465,1.162V29.63h0a1.738,1.738,0,0,0,.465,1.162Z" transform="translate(-499.5 -12.9)"/></g><rect class="a" width="4.322" height="3.299" transform="translate(61.853 23.468)"/></g><path class="b" d="M0,28.3V2L3.3,0V28.3Z"/><path d="M105.3,39.221V22.4l3.3-2V39.221Z" transform="translate(-56.366 -10.92)"/><path class="b" d="M16.2,41.416V24.5H27.771A4.928,4.928,0,0,1,32.7,29.426h0v11.99H29.4V29.426a1.738,1.738,0,0,0-.465-1.162h0a1.541,1.541,0,0,0-1.162-.465H19.453V39.464L16.2,41.416Z" transform="translate(-8.672 -13.115)"/><path d="M182.225,11.432H174V0l-3.3,2V28.3H174V14.731h8.225a1.738,1.738,0,0,1,1.162.465,1.541,1.541,0,0,1,.465,1.162v11.9h3.3V16.4A4.939,4.939,0,0,0,182.225,11.432Z" transform="translate(-91.373)"/><path d="M219.718,32.68a1.541,1.541,0,0,1-.465-1.162V22.875h11.525l2-3.3H219.3V15.3l-3.3,2v14.22a4.928,4.928,0,0,0,4.926,4.926h9.991v-3.3h-9.991A1.427,1.427,0,0,1,219.718,32.68Z" transform="translate(-115.622 -8.19)"/><path d="M59.1,41.576Zm0,0-2-3.3H70.2a1.738,1.738,0,0,0,1.162-.465h0a1.541,1.541,0,0,0,.465-1.162h0v-.279a1.738,1.738,0,0,0-.465-1.162h0a1.541,1.541,0,0,0-1.162-.465H63.56a4.928,4.928,0,0,1-4.926-4.926h0v-.093A4.928,4.928,0,0,1,63.56,24.8H76.2l-2,3.3H63.56a1.738,1.738,0,0,0-1.162.465h0a1.541,1.541,0,0,0-.465,1.162h0v.093a1.738,1.738,0,0,0,.465,1.162h0a1.541,1.541,0,0,0,1.162.465h6.692a4.889,4.889,0,0,1,4.926,4.879h0V36.6a4.928,4.928,0,0,1-4.926,4.926H59.1Z" transform="translate(-30.565 -13.275)"/><path d="M120.1,46.309Zm0,0-2-3.3h15.243a1.738,1.738,0,0,0,1.162-.465h0a1.541,1.541,0,0,0,.465-1.162h0V38.409H124.652a4.928,4.928,0,0,1-4.926-4.926h0V29.626a4.928,4.928,0,0,1,4.926-4.926h8.69a4.928,4.928,0,0,1,4.926,4.926V42.034c0,2.045-2.231,4.275-4.926,4.275H120.1Zm3.392-17.845a1.541,1.541,0,0,0-.465,1.162h0v3.857a1.738,1.738,0,0,0,.465,1.162h0a1.541,1.541,0,0,0,1.162.465h10.317V29.626a1.738,1.738,0,0,0-.465-1.162h0A1.541,1.541,0,0,0,133.343,28h-8.69a1.389,1.389,0,0,0-1.162.465Z" transform="translate(-63.217 -13.222)"/><path d="M356.826,41.469a4.928,4.928,0,0,1-4.926-4.926h0V29.526a4.928,4.928,0,0,1,4.926-4.926h13.988l-2,3.3h-11.99a1.738,1.738,0,0,0-1.162.465h0a1.541,1.541,0,0,0-.465,1.162h0v7.017a1.738,1.738,0,0,0,.465,1.162h0a1.541,1.541,0,0,0,1.162.465h11.99v3.3Z" transform="translate(-188.367 -13.168)"/><path d="M283.486,3.4H259.6V6.7h10.317V30.121h3.253V6.7h8.318Z" transform="translate(-138.96 -1.82)"/><path d="M411.525,11.246H403.3V0L400,2V28.3h3.3V14.546h8.225a1.738,1.738,0,0,1,1.162.465,1.541,1.541,0,0,1,.465,1.162V28.255h3.3V16.172A4.928,4.928,0,0,0,411.525,11.246Z" transform="translate(-214.114)"/><path d="M307.926,41.416A4.928,4.928,0,0,1,303,36.49h0V29.426a4.928,4.928,0,0,1,4.926-4.926h8.6a4.928,4.928,0,0,1,4.926,4.926h0v5.437H306.3v1.58a1.738,1.738,0,0,0,.465,1.162h0a1.541,1.541,0,0,0,1.162.465h15.15l-2,3.3H307.926Zm8.6-9.805h1.626V29.426a1.738,1.738,0,0,0-.465-1.162h0a1.541,1.541,0,0,0-1.162-.465h-8.6a1.738,1.738,0,0,0-1.162.465h0a1.541,1.541,0,0,0-.465,1.162h0V31.61Z" transform="translate(-162.192 -13.115)"/></g><g transform="translate(844 450)"><path class="a" d="M75.026,59.8a3.47,3.47,0,0,1,3.463,3.463h0v13.2a3.47,3.47,0,0,1-3.463,3.463H64.738L54.4,83.99,58.365,73.9h0V62.61l2.81-2.81H75.026Zm0,3.112H62.48l-1,1V74.5L59.92,78.419l4.165-1.656h10.89a.324.324,0,0,0,.3-.3h0v-13.2c.1-.151-.05-.351-.251-.351Z" transform="translate(-28.273 -29.789)"/><g transform="translate(0 0)"><g transform="translate(0 16.5)"><path class="b" d="M8.581,52.21c0-.05,1.1-.7,2.459-1.506L28.505,40.617a2.863,2.863,0,0,0,1.054-3.864l-1.405-2.459A2.863,2.863,0,0,0,24.29,33.24L2.559,45.786C1.2,46.589.1,47.242.1,47.292s1.1.7,2.459,1.506l3.613,2.108C7.477,51.608,8.581,52.21,8.581,52.21Z" transform="translate(-0.1 -32.877)"/></g><g transform="translate(12.095 40.65)"><path class="b" d="M32.832,106.9c-.05,0-.05-1.3-.05-2.861V83.861A2.892,2.892,0,0,0,29.921,81H27.061A2.892,2.892,0,0,0,24.2,83.861v25.093c0,1.556.05,2.861.05,2.861s1.154-.6,2.509-1.405l3.613-2.108C31.778,107.548,32.882,106.9,32.832,106.9Z" transform="translate(-24.2 -81)"/></g><g transform="translate(26.639 59.386)"><path class="b" d="M81.161,130.21c-.05,0-1.154-.6-2.509-1.405L61.187,118.718a2.807,2.807,0,0,0-3.864,1.054l-1.405,2.459a2.807,2.807,0,0,0,1.054,3.864L78.7,138.642c1.355.8,2.509,1.405,2.509,1.405.05,0,.05-1.3.05-2.861v-4.165C81.212,131.465,81.161,130.21,81.161,130.21Z" transform="translate(-55.533 -118.333)"/></g><g transform="translate(50.178 45.315)"><path d="M126.218,90.3c0,.05-1.1.7-2.459,1.506L106.294,101.89a2.863,2.863,0,0,0-1.054,3.864l1.405,2.459a2.863,2.863,0,0,0,3.864,1.054l21.73-12.546c1.355-.8,2.459-1.455,2.459-1.506s-1.1-.7-2.459-1.506L128.627,91.6A24.415,24.415,0,0,0,126.218,90.3Z" transform="translate(-104.877 -90.294)"/></g><g transform="translate(59.272 9.686)"><path class="b" d="M123,24.218c.05,0,.05,1.3.05,2.861V47.253a2.892,2.892,0,0,0,2.861,2.861h2.861a2.892,2.892,0,0,0,2.861-2.861V22.161c0-1.556-.05-2.861-.05-2.861-.05,0-1.154.6-2.509,1.405l-3.613,2.108C124.052,23.566,122.948,24.218,123,24.218Z" transform="translate(-122.997 -19.3)"/></g><g transform="translate(27.632)"><path class="b" d="M57.7,9.836c.05,0,1.154.6,2.509,1.405L77.674,21.329a2.807,2.807,0,0,0,3.864-1.054l1.405-2.459a2.807,2.807,0,0,0-1.054-3.864L60.159,1.405C58.8.6,57.65,0,57.65,0s-.05,1.3-.05,2.861V7.026C57.65,8.632,57.65,9.887,57.7,9.836Z" transform="translate(-57.6 0)"/></g></g></g></g></svg>