<svg xmlns="http://www.w3.org/2000/svg" viewBox="0 0 493.287 58.333"><defs><style>.a{fill:#004d8a;}.b{fill:#008bc3;}</style></defs><g transform="translate(376.622 1.557)"><path class="a" d="M487.883,43.418h-19.5a3.064,3.064,0,0,1-2.048-.819,2.717,2.717,0,0,1-.819-2.048V2.7L459.7,6.633V40.469a8.689,8.689,0,0,0,8.684,8.684h19.5Z" transform="translate(-459.7 -2.045)"/><g transform="translate(71.441)"><path class="a" d="M552.717,5.259V24.922H570.9a8.689,8.689,0,0,1,8.684,8.684h0v6.8A8.689,8.689,0,0,1,570.9,49.09h-15.32a8.689,8.689,0,0,1-8.684-8.684V1.9Zm20.318,37.2a2.717,2.717,0,0,0,.819-2.048h0v-6.8a3.064,3.064,0,0,0-.819-2.048h0a2.717,2.717,0,0,0-2.048-.819h-18.27v9.667a3.064,3.064,0,0,0,.819,2.048h0a2.717,2.717,0,0,0,2.048.819H570.9a2.779,2.779,0,0,0,2.13-.819Z" transform="translate(-546.9 -1.9)"/></g><g transform="translate(32.607 9.012)"><path class="a" d="M503.269,12.9Zm0,0H523.5c4.834,0,8.684,3.933,8.684,7.537V42.312A8.689,8.689,0,0,1,523.5,51h-15.32a8.689,8.689,0,0,1-8.684-8.684v-6.8h0a8.689,8.689,0,0,1,8.684-8.684h18.188V21.584h0a3.064,3.064,0,0,0-.819-2.048h0a2.717,2.717,0,0,0-2.048-.819H499.828l3.441-5.817Zm2.867,31.542a2.718,2.718,0,0,0,2.048.819H523.5a3.064,3.064,0,0,0,2.048-.819h0a2.717,2.717,0,0,0,.819-2.048V32.727H508.184a3.064,3.064,0,0,0-2.048.819h0a2.717,2.717,0,0,0-.819,2.048v6.8h0a3.064,3.064,0,0,0,.819,2.048Z" transform="translate(-499.5 -12.9)"/></g><rect class="a" width="7.619" height="5.817" transform="translate(109.046 41.373)"/></g><path class="b" d="M0,49.894V3.523L5.817,0V49.894Z"/><path d="M105.3,53.581V23.923l5.817-3.523V53.581Z" transform="translate(-19.03 -3.687)"/><path class="b" d="M16.2,54.322V24.5H36.6a8.689,8.689,0,0,1,8.684,8.684h0V54.322H39.467V33.184a3.064,3.064,0,0,0-.819-2.048h0a2.717,2.717,0,0,0-2.048-.819H21.935V50.881L16.2,54.322Z" transform="translate(-2.928 -4.428)"/><path d="M191.018,20.154h-14.5V0L170.7,3.523V49.894h5.817V25.971h14.5a3.064,3.064,0,0,1,2.048.819,2.717,2.717,0,0,1,.819,2.048V49.812H199.7V28.92A8.707,8.707,0,0,0,191.018,20.154Z" transform="translate(-30.849)"/><path d="M222.554,45.941a2.717,2.717,0,0,1-.819-2.048V28.654h20.318l3.523-5.817H221.817V15.3L216,18.823v25.07a8.689,8.689,0,0,0,8.684,8.684H242.3V46.76H224.684A2.516,2.516,0,0,1,222.554,45.941Z" transform="translate(-39.036 -2.765)"/><path d="M60.623,54.376Zm0,0L57.1,48.559H80.2a3.064,3.064,0,0,0,2.048-.819h0a2.717,2.717,0,0,0,.819-2.048h0V45.2a3.064,3.064,0,0,0-.819-2.048h0a2.717,2.717,0,0,0-2.048-.819H68.488A8.689,8.689,0,0,1,59.8,33.648h0v-.164A8.689,8.689,0,0,1,68.488,24.8H90.772l-3.523,5.817H68.488a3.064,3.064,0,0,0-2.048.819h0a2.717,2.717,0,0,0-.819,2.048h0v.164A3.064,3.064,0,0,0,66.44,35.7h0a2.717,2.717,0,0,0,2.048.819h11.8a8.619,8.619,0,0,1,8.684,8.6h0v.492a8.689,8.689,0,0,1-8.684,8.684H60.623Z" transform="translate(-10.319 -4.482)"/><path d="M121.623,62.8Zm0,0L118.1,56.98h26.872a3.064,3.064,0,0,0,2.048-.819h0a2.717,2.717,0,0,0,.819-2.048h0V48.869H129.652a8.689,8.689,0,0,1-8.684-8.684h0v-6.8a8.689,8.689,0,0,1,8.684-8.684h15.32a8.689,8.689,0,0,1,8.684,8.684V55.259c0,3.6-3.933,7.537-8.684,7.537H121.623Zm5.981-31.46a2.717,2.717,0,0,0-.819,2.048h0v6.8a3.064,3.064,0,0,0,.819,2.048h0a2.717,2.717,0,0,0,2.048.819H147.84V33.384a3.064,3.064,0,0,0-.819-2.048h0a2.717,2.717,0,0,0-2.048-.819h-15.32a2.449,2.449,0,0,0-2.048.819Z" transform="translate(-21.343 -4.464)"/><path d="M360.584,54.34a8.689,8.689,0,0,1-8.684-8.684h0V33.284a8.689,8.689,0,0,1,8.684-8.684h24.66l-3.523,5.817H360.584a3.064,3.064,0,0,0-2.048.819h0a2.717,2.717,0,0,0-.819,2.048h0V45.655a3.064,3.064,0,0,0,.819,2.048h0a2.717,2.717,0,0,0,2.048.819h21.137V54.34Z" transform="translate(-63.596 -4.446)"/><path d="M301.711,3.4H259.6V9.217h18.188V50.508h5.735V9.217h14.665Z" transform="translate(-46.916 -0.614)"/><path d="M420.318,19.827h-14.5V0L400,3.523V49.894h5.817V25.643h14.5a3.064,3.064,0,0,1,2.048.819,2.717,2.717,0,0,1,.819,2.048v21.3H429v-21.3A8.689,8.689,0,0,0,420.318,19.827Z" transform="translate(-72.289)"/><path d="M311.684,54.322A8.689,8.689,0,0,1,303,45.637h0V33.184a8.689,8.689,0,0,1,8.684-8.684h15.157a8.689,8.689,0,0,1,8.684,8.684h0V42.77H308.817v2.786a3.064,3.064,0,0,0,.819,2.048h0a2.717,2.717,0,0,0,2.048.819h26.708L334.87,54.24H311.684Zm15.157-17.287h2.867V33.184a3.064,3.064,0,0,0-.819-2.048h0a2.717,2.717,0,0,0-2.048-.819H311.684a3.064,3.064,0,0,0-2.048.819h0a2.717,2.717,0,0,0-.819,2.048h0v3.851Z" transform="translate(-54.759 -4.428)"/></svg>